<svg width="96" height="96" xmlns="http://www.w3.org/2000/svg" xmlns:xlink="http://www.w3.org/1999/xlink" xml:space="preserve" overflow="hidden"><g transform="translate(-72 -539)"><path d="M162.6 619 123.5 551C122 548.3 118.1 548.3 116.6 551L77.4 619C75.9 621.7 77.8 625 80.9 625L120 625 159.1 625C162.2 625 164.1 621.7 162.6 619ZM117 567 123 567 123 602 117 602 117 567ZM120 616C117.2 616 115 613.8 115 611 115 608.2 117.2 606 120 606 122.8 606 125 608.2 125 611 125 613.8 122.8 616 120 616Z" fill="#7F7F7F"/></g></svg>