<svg width="53" height="52" xmlns="http://www.w3.org/2000/svg" xmlns:xlink="http://www.w3.org/1999/xlink" xml:space="preserve" overflow="hidden"><g transform="translate(-180 -545)"><path d="M49.075 43.3333 27.8958 6.5C27.0833 5.0375 24.9708 5.0375 24.1583 6.5L2.925 43.3333C2.1125 44.7958 3.14167 46.5833 4.82083 46.5833L26 46.5833 47.1792 46.5833C48.8583 46.5833 49.8875 44.7958 49.075 43.3333ZM24.375 15.1667 27.625 15.1667 27.625 34.125 24.375 34.125 24.375 15.1667ZM26 41.7083C24.4833 41.7083 23.2917 40.5167 23.2917 39 23.2917 37.4833 24.4833 36.2917 26 36.2917 27.5167 36.2917 28.7083 37.4833 28.7083 39 28.7083 40.5167 27.5167 41.7083 26 41.7083Z" fill="#FFFFFF" transform="matrix(1.01923 0 0 1 180 545)"/></g></svg>