<svg width="96" height="96" xmlns="http://www.w3.org/2000/svg" xmlns:xlink="http://www.w3.org/1999/xlink" xml:space="preserve" overflow="hidden"><g transform="translate(-107 -454)"><path d="M195 503C194.99 506.31 192.31 508.99 189 509L170 509C168.393 509.028 167.083 510.295 167 511.9 167.1 513.7 170 517.3 170 531 170 534.314 167.314 537 164 537 160.686 537 158 534.314 158 531 158 515.8 140.3 507.2 140 507L140 475C147.1 475 147.6 467 161 467L179 467C182.31 467.01 184.99 469.69 185 473 185.023 474.494 184.447 475.934 183.4 477L184 477C187.31 477.01 189.99 479.69 190 483 190.015 484.57 189.403 486.082 188.3 487.2 191.521 487.901 193.565 491.08 192.864 494.301 192.605 495.49 191.99 496.571 191.1 497.4 193.463 498.241 195.03 500.492 195 503Z" fill="#FFFFFF"/><path d="M130 512 115 512 115 470 130 470C132.206 470.007 133.993 471.794 134 474L134 508C133.993 510.206 132.206 511.993 130 512Z" fill="#FFFFFF"/></g></svg>