<svg width="96" height="96" xmlns="http://www.w3.org/2000/svg" xmlns:xlink="http://www.w3.org/1999/xlink" xml:space="preserve" overflow="hidden"><g transform="translate(-262 -411)"><path d="M324.93 461C321.55 458.12 317.16 456.77 313 455.47L313 431.29C317.039 431.674 320.814 433.469 323.66 436.36L328.46 431.76C324.352 427.581 318.848 425.064 313 424.69L313 416 307 416 307 425.07C304.945 425.47 302.963 426.178 301.12 427.17 293.54 431.3 289.67 441 292.78 449.17 295.19 455.47 301 458.28 307 460.39L307 486.57C302.35 486 298.49 483.33 295.29 480L290.49 484.59C292.776 487.183 295.501 489.353 298.54 491 301.197 492.264 304.066 493.02 307 493.23L307 502 313 502 313 493C319.88 491.85 326.2 487.62 328.92 481 331.64 474.38 330.65 465.89 324.93 461ZM302 450.73C296.5 446.09 297.84 437.11 303.67 433.39 304.703 432.727 305.824 432.212 307 431.86L307 453.55C305.19 452.892 303.5 451.939 302 450.73ZM320.09 482.55C318.138 484.458 315.676 485.76 313 486.3L313 462.41C317 463.78 321.59 465.52 323.22 469.78 324.85 474.04 323.21 479.37 320.09 482.55Z" fill="#7F7F7F"/></g></svg>