<svg width="71" height="71" xmlns="http://www.w3.org/2000/svg" xmlns:xlink="http://www.w3.org/1999/xlink" xml:space="preserve" overflow="hidden"><g transform="translate(-171 -378)"><path d="M183.869 390.573C182.472 390.581 181.346 391.72 181.354 393.117 181.354 393.117 181.354 393.117 181.354 393.117L181.354 423.691 181.354 423.691C181.346 425.088 182.472 426.227 183.869 426.236 183.869 426.236 183.869 426.236 183.869 426.236L191.413 426.236 191.413 436.427 201.471 426.236 229.131 426.236C230.528 426.227 231.654 425.088 231.646 423.692 231.646 423.692 231.646 423.691 231.646 423.691L231.646 393.117 231.646 393.117C231.654 391.72 230.528 390.581 229.131 390.573 229.131 390.573 229.131 390.573 229.131 390.573ZM214.635 408.323C214.635 406.281 216.291 404.625 218.333 404.625 220.376 404.625 222.031 406.281 222.031 408.323 222.031 410.365 220.376 412.021 218.333 412.021 216.291 412.021 214.635 410.365 214.635 408.323ZM202.802 408.323C202.802 406.281 204.458 404.625 206.5 404.625 208.542 404.625 210.198 406.281 210.198 408.323 210.198 410.365 208.542 412.021 206.5 412.021 204.458 412.021 202.802 410.365 202.802 408.323ZM190.969 408.323C190.969 406.281 192.624 404.625 194.667 404.625 196.709 404.625 198.365 406.281 198.365 408.323 198.365 410.365 196.709 412.021 194.667 412.021 192.624 412.021 190.969 410.365 190.969 408.323Z" fill="#7F7F7F"/></g></svg>