<svg width="96" height="96" xmlns="http://www.w3.org/2000/svg" xmlns:xlink="http://www.w3.org/1999/xlink" xml:space="preserve" overflow="hidden"><g transform="translate(-47 -320)"><path d="M134.173 356.247 135 350.247 114.89 350.247 117.818 329 111.762 329 108.834 350.247 85.89 350.247 88.818 329 82.762 329 79.834 350.247 60 350.247 59.173 356.247 79.007 356.247 75.769 379.747 55.935 379.747 55.108 385.747 74.942 385.747 72.013 407 78.07 407 81 385.747 103.942 385.747 101.013 407 107.07 407 110 385.747 130.11 385.747 130.937 379.747 110.825 379.747 114.064 356.247ZM104.773 379.747 81.825 379.747 85.064 356.247 108.007 356.247Z" fill="#7F7F7F"/></g></svg>