<svg width="59" height="59" xmlns="http://www.w3.org/2000/svg" xmlns:xlink="http://www.w3.org/1999/xlink" xml:space="preserve" overflow="hidden"><g transform="translate(-89 -706)"><path d="M109.281 724.929C109.281 727.984 106.805 730.46 103.75 730.46 100.695 730.46 98.2188 727.984 98.2188 724.929 98.2188 721.874 100.695 719.398 103.75 719.398 106.805 719.398 109.281 721.874 109.281 724.929Z" fill="#7F7F7F"/><path d="M138.781 724.929C138.781 727.984 136.305 730.46 133.25 730.46 130.195 730.46 127.719 727.984 127.719 724.929 127.719 721.874 130.195 719.398 133.25 719.398 136.305 719.398 138.781 721.874 138.781 724.929Z" fill="#7F7F7F"/><path d="M129.562 751.602 129.562 746.071C129.562 745.21 129.194 744.35 128.456 743.858 126.981 742.629 125.015 741.769 123.048 741.277 121.696 740.908 120.098 740.54 118.5 740.54 117.025 740.54 115.427 740.785 113.952 741.277 111.985 741.769 110.142 742.752 108.544 743.858 107.806 744.473 107.438 745.21 107.438 746.071L107.438 751.602 129.562 751.602Z" fill="#7F7F7F"/><path d="M124.031 733.533C124.031 736.588 121.555 739.065 118.5 739.065 115.445 739.065 112.969 736.588 112.969 733.533 112.969 730.479 115.445 728.002 118.5 728.002 121.555 728.002 124.031 730.479 124.031 733.533Z" fill="#7F7F7F"/><path d="M143.206 735.254C141.731 734.025 139.765 733.165 137.798 732.673 136.446 732.304 134.848 731.935 133.25 731.935 131.775 731.935 130.177 732.181 128.702 732.673 127.965 732.919 127.227 733.165 126.49 733.533L126.49 733.656C126.49 735.746 125.629 737.713 124.277 739.065 126.613 739.802 128.456 740.785 129.931 741.892 130.3 742.26 130.669 742.506 130.915 742.998L144.312 742.998 144.312 737.467C144.312 736.606 143.944 735.746 143.206 735.254Z" fill="#7F7F7F"/><path d="M107.069 741.892 107.069 741.892C108.79 740.662 110.756 739.679 112.723 739.065 111.371 737.59 110.51 735.746 110.51 733.656 110.51 733.533 110.51 733.533 110.51 733.41 109.773 733.165 109.035 732.796 108.298 732.673 106.946 732.304 105.348 731.935 103.75 731.935 102.275 731.935 100.677 732.181 99.2021 732.673 97.2354 733.287 95.3917 734.148 93.7937 735.254 93.0563 735.746 92.6875 736.606 92.6875 737.467L92.6875 742.998 105.963 742.998C106.331 742.506 106.577 742.26 107.069 741.892Z" fill="#7F7F7F"/></g></svg>