<svg width="96" height="96" xmlns="http://www.w3.org/2000/svg" xmlns:xlink="http://www.w3.org/1999/xlink" xml:space="preserve" overflow="hidden"><g transform="translate(-25 -431)"><path d="M113 478C113 474.7 110.3 472 107 472L88 472C86.4 472 85.1 470.7 85 469.1 85.1 467.3 88 463.7 88 450 88 446.7 85.3 444 82 444 78.7 444 76 446.7 76 450 76 465.2 58.3 473.8 58 474L58 506C65.1 506 65.6 514 79 514 83.5 514 97 514 97 514 100.3 514 103 511.3 103 508 103 506.4 102.4 505 101.4 504 101.6 504 101.8 504 102 504 105.3 504 108 501.3 108 498 108 496.4 107.4 494.9 106.3 493.8 109 493.2 111 490.8 111 488 111 486.3 110.3 484.7 109.1 483.6 111.4 482.8 113 480.6 113 478Z" fill="#FFFFFF"/><path d="M48 469 33 469 33 511 48 511C50.2 511 52 509.2 52 507L52 473C52 470.8 50.2 469 48 469Z" fill="#FFFFFF"/></g></svg>