<svg width="42" height="42" xmlns="http://www.w3.org/2000/svg" xmlns:xlink="http://www.w3.org/1999/xlink" xml:space="preserve" overflow="hidden"><g transform="translate(-359 -44)"><path d="M388.75 57.2125C387.7 57.2125 386.825 56.3375 386.869 55.2438 386.869 54.1937 387.744 53.3187 388.794 53.3187 389.844 53.3187 390.719 54.1937 390.719 55.2438 390.719 55.7687 390.5 56.25 390.15 56.6 389.756 56.9938 389.275 57.2125 388.75 57.2125ZM386.869 51.1312C385.906 51.4813 385.163 52.225 384.681 53.1 384.069 54.2812 383.981 55.6375 384.462 56.8625L386.562 61.4125 387.962 64.3C388.094 64.6062 388.4 64.7812 388.75 64.7812 389.1 64.7812 389.406 64.6062 389.538 64.3L390.938 61.4125 393.038 56.9062C393.256 56.3812 393.344 55.8125 393.344 55.2438 393.344 52.1813 390.194 49.8625 386.869 51.1312Z" fill="#7F7F7F"/><path d="M379.125 75.85 372.125 72.35 372.125 58.0875 379.125 61.5875 379.125 75.85ZM370.375 72.35 365.125 74.975 365.125 60.7125 370.375 58.0875 370.375 72.35ZM394.612 57.65 394.612 57.65 393.519 60.0125 394.875 60.7125 394.875 74.975 389.625 72.35 389.625 66.5312 387.875 66.5312 387.875 72.35 380.875 75.85 380.875 61.5875 383.981 60.0125 382.888 57.65 380 59.0938 371.25 54.7188 362.5 59.0938 362.5 79.2188 371.25 74.8438 380 79.2188 388.75 74.8438 397.5 79.2188 397.5 59.0938 394.612 57.65Z" fill="#7F7F7F"/></g></svg>