<svg width="978" height="978" xmlns="http://www.w3.org/2000/svg" xmlns:xlink="http://www.w3.org/1999/xlink" xml:space="preserve" overflow="hidden"><g transform="translate(1582 -1212)"><path d="M-1424 1430C-1424 1388.03-1389.97 1354-1348 1354L-1111 1354C-1069.03 1354-1035 1388.03-1035 1430L-1035 1430C-1035 1471.97-1069.03 1506-1111 1506L-1348 1506C-1389.97 1506-1424 1471.97-1424 1430Z" fill="#FFFFFF" fill-rule="evenodd"/><path d="M-1424 1690C-1424 1648.03-1389.97 1614-1348 1614L-832 1614C-790.026 1614-756 1648.03-756 1690L-756 1690C-756 1731.97-790.026 1766-832 1766L-1348 1766C-1389.97 1766-1424 1731.97-1424 1690Z" fill="#FFFFFF" fill-rule="evenodd"/><path d="M-1426 1973.5C-1426 1931.25-1391.75 1897-1349.5 1897L-950.5 1897C-908.25 1897-874 1931.25-874 1973.5L-874 1973.5C-874 2015.75-908.25 2050-950.5 2050L-1349.5 2050C-1391.75 2050-1426 2015.75-1426 1973.5Z" fill="#FFFFFF" fill-rule="evenodd"/></g></svg>