<svg width="96" height="96" xmlns="http://www.w3.org/2000/svg" xmlns:xlink="http://www.w3.org/1999/xlink" xml:space="preserve" overflow="hidden"><g transform="translate(-82 -282)"><path d="M149 297.5C149 301.918 145.418 305.5 141 305.5 136.582 305.5 133 301.918 133 297.5 133 293.082 136.582 289.5 141 289.5 145.418 289.5 149 293.082 149 297.5Z" fill="#7F7F7F"/><path d="M105 336.5C95.6 336.5 88 344.1 88 353.5 88 362.9 95.6 370.5 105 370.5 114.4 370.5 122 362.9 122 353.5 122 344.1 114.4 336.5 105 336.5ZM105 366.5C97.8 366.5 92 360.7 92 353.5 92 346.3 97.8 340.5 105 340.5 112.2 340.5 118 346.3 118 353.5 118 360.7 112.2 366.5 105 366.5Z" fill="#7F7F7F"/><path d="M155 336.5C145.6 336.5 138 344.1 138 353.5 138 362.9 145.6 370.5 155 370.5 164.4 370.5 172 362.9 172 353.5 172 344.1 164.4 336.5 155 336.5ZM155 366.5C147.8 366.5 142 360.7 142 353.5 142 346.3 147.8 340.5 155 340.5 162.2 340.5 168 346.3 168 353.5 168 360.7 162.2 366.5 155 366.5Z" fill="#7F7F7F"/><path d="M137.7 321.8C138.5 322.6 139.5 323 140.5 323L152 323C154.2 323 156 321.2 156 319 156 316.8 154.2 315 152 315L142.2 315C142.2 315 130.8 303.5 130.6 303.4 128.1 301.2 124.3 301.5 122.1 304L108.5 319.5C106.3 322 106.6 325.8 109 328 109.6 328.5 110.2 328.9 110.9 329.1L110.9 329.1 125.9 335.1 125.9 353.4C125.9 355.6 127.7 357.4 129.9 357.4 132.1 357.4 133.9 355.6 133.9 353.4L133.9 332.4C133.9 330.8 132.9 329.3 131.5 328.7L120.4 324 129.5 313.6 137.7 321.8Z" fill="#7F7F7F"/></g></svg>