<svg width="42" height="42" xmlns="http://www.w3.org/2000/svg" xmlns:xlink="http://www.w3.org/1999/xlink" xml:space="preserve" overflow="hidden"><g transform="translate(-358 -45)"><path d="M379 71.25C376.112 71.25 373.75 68.8875 373.75 66 373.75 63.1125 376.112 60.75 379 60.75 381.888 60.75 384.25 63.1125 384.25 66 384.25 68.8875 381.888 71.25 379 71.25ZM390.812 62.7188C390.55 61.7562 390.156 60.8375 389.675 60.0062L390.769 56.725 388.275 54.2313 384.994 55.325C384.119 54.8438 383.2 54.45 382.237 54.1875L380.75 51.125 377.25 51.125 375.719 54.1875C374.756 54.45 373.837 54.8438 373.006 55.325L369.725 54.2313 367.231 56.725 368.325 60.0062C367.844 60.8812 367.45 61.8 367.188 62.7625L364.125 64.25 364.125 67.75 367.188 69.2812C367.45 70.2438 367.844 71.1625 368.325 71.9938L367.231 75.275 369.725 77.7688 373.006 76.675C373.881 77.1562 374.8 77.55 375.763 77.8125L377.294 80.875 380.794 80.875 382.325 77.8125C383.288 77.55 384.206 77.1562 385.038 76.675L388.319 77.7688 390.812 75.275 389.719 71.9938C390.2 71.1188 390.594 70.2 390.856 69.2375L393.919 67.7063 393.919 64.2063 390.812 62.7188Z" fill="#595959"/></g></svg>