<svg width="96" height="96" xmlns="http://www.w3.org/2000/svg" xmlns:xlink="http://www.w3.org/1999/xlink" xml:space="preserve" overflow="hidden"><g transform="translate(-153 -370)"><path d="M232.8 384C232.6 384 232.3 384 232.1 384.1L168.5 405.3C167.6 405.6 167 406.4 167 407.3 167 408.2 167.6 409 168.5 409.3L198.7 420.2 209.6 450.4C209.9 451.3 210.7 451.9 211.6 451.9 212.5 451.9 213.3 451.3 213.6 450.4L234.8 386.7C235 386 234.9 385.3 234.5 384.8 234.2 384.4 233.6 384 232.8 384L232.8 384ZM226.8 392.2 211.5 438.1 204.4 418.3 203.4 415.6 200.7 414.6 180.9 407.5 226.8 392.2" fill="#FFFFFF"/></g></svg>