<svg width="96" height="96" xmlns="http://www.w3.org/2000/svg" xmlns:xlink="http://www.w3.org/1999/xlink" xml:space="preserve" overflow="hidden"><g transform="translate(1 -279)"><path d="M60 292C60 296.418 56.4183 300 52 300 47.5817 300 44 296.418 44 292 44 287.582 47.5817 284 52 284 56.4183 284 60 287.582 60 292Z" fill="#7F7F7F"/><path d="M72.3 323.2 62 319.8C62 319.8 56.3 306.6 56.1 306.2 54.7 303.7 52.1 302 49.1 302 47.9 302 46.7 302.3 45.7 302.8L31.7 308.3C30.7 308.7 29.9 309.5 29.5 310.5L24.5 322.5C23.7 324.5 24.6 326.9 26.7 327.7 27.2 327.9 27.7 328 28.2 328 29.8 328 31.3 327.1 31.9 325.5L36 315.1 40.2 313.5 33.3 347.2 19.9 363.5C18.5 365.2 18.7 367.7 20.4 369.1 21.1 369.7 22 370 22.9 370 24.1 370 25.2 369.5 26 368.5L40 351.5C40.4 351 40.7 350.4 40.8 349.8L43.2 338.2 54 346 54 366C54 368.2 55.8 370 58 370 60.2 370 62 368.2 62 366L62 344C62 342.7 61.4 341.5 60.4 340.8L50.7 333.7 53.4 320.2 55.3 324.6C55.8 325.6 56.6 326.4 57.7 326.8L69.7 330.8C70.1 330.9 70.5 331 71 331 72.7 331 74.2 329.9 74.8 328.3 75.5 326.2 74.4 323.9 72.3 323.2Z" fill="#7F7F7F"/></g></svg>