<svg width="55" height="55" xmlns="http://www.w3.org/2000/svg" xmlns:xlink="http://www.w3.org/1999/xlink" xml:space="preserve" overflow="hidden"><g transform="translate(-20 -283)"><path d="M64.8021 310.443C64.6302 310.443 64.401 310.443 64.2292 310.443 64.2292 310.443 64.2292 310.443 64.2292 310.443 64.2292 307.635 62.8542 305.057 60.6198 303.453 58.3281 301.849 55.4062 301.448 52.7708 302.365 50.5938 298.125 45.7812 295.948 41.1979 297.036 36.6146 298.125 33.2917 302.25 33.2917 307.005 33.2917 307.005 33.2917 307.062 33.2917 307.12 30.1406 306.604 26.9896 307.922 25.0417 310.443 23.151 313.021 22.8073 316.401 24.125 319.266 25.5 322.13 28.3646 324.021 31.5156 324.193L31.5156 324.25 64.7448 324.25C68.526 324.25 71.6198 321.156 71.6198 317.375 71.6198 313.594 68.5833 310.443 64.8021 310.443Z" fill="#FFFFFF"/></g></svg>