<svg width="96" height="96" xmlns="http://www.w3.org/2000/svg" xmlns:xlink="http://www.w3.org/1999/xlink" xml:space="preserve" overflow="hidden"><g transform="translate(39 -379)"><path d="M16.1 451.5C16.1 455.4 13 458.5 9.1 458.5 5.2 458.5 2.1 455.4 2.1 451.5 2.1 447.6 9.1 437.5 9.1 437.5 9.1 437.5 16.1 447.7 16.1 451.5Z" fill="#FFFFFF"/><path d="M31.1 447.5C31.1 450.3 28.9 452.5 26.1 452.5 23.3 452.5 21.1 450.3 21.1 447.5 21.1 444.7 26.1 437.5 26.1 437.5 26.1 437.5 31.1 444.8 31.1 447.5Z" fill="#FFFFFF"/><path d="M-2.9 447.5C-2.9 450.3-5.1 452.5-7.9 452.5-10.7 452.5-12.9 450.3-12.9 447.5-12.9 444.7-7.9 437.5-7.9 437.5-7.9 437.5-2.9 444.8-2.9 447.5Z" fill="#FFFFFF"/><path d="M43.1 424C43.1 421.2 41.9 418.6 39.8 416.8 37.7 415 34.9 414.2 32.1 414.7L32.1 414.6C32.1 410.8 30.3 407.1 27.1 404.9 24 402.6 20 402 16.3 403.2 13.2 397.4 6.5 394.4 0.0999985 396-6.3 397.5-10.9 403.2-11 409.8-15.4 409-19.9 410.7-22.6 414.2-25.4 417.7-26 422.4-24.2 426.5-22.4 430.6-18.5 433.3-14 433.6L34 433.6C39.2 433.3 43.1 429.1 43.1 424Z" fill="#FFFFFF"/></g></svg>