<svg width="41" height="41" xmlns="http://www.w3.org/2000/svg" xmlns:xlink="http://www.w3.org/1999/xlink" xml:space="preserve" overflow="hidden"><g transform="translate(-41 -719)"><path d="M65.2583 723.484 66.9667 723.484 66.9667 728.609 65.2583 728.609Z" fill="#FFFFFF"/><path d="M76.1065 727.965 72.4827 731.589 71.2747 730.381 74.8986 726.757Z" fill="#FFFFFF"/><path d="M74.2271 735.87 79.3521 735.87 79.3521 737.578 74.2271 737.578Z" fill="#FFFFFF"/><path d="M76.0978 745.472 74.8899 746.68 71.266 743.056 72.474 741.848Z" fill="#FFFFFF"/><path d="M52.8729 735.87 57.9979 735.87 57.9979 737.578 52.8729 737.578Z" fill="#FFFFFF"/><path d="M60.9851 730.403 59.7771 731.611 56.1532 727.987 57.3612 726.779Z" fill="#FFFFFF"/><path d="M68.675 747.401C68.4615 747.401 68.2479 747.401 68.0344 747.444 68.0344 747.444 68.0344 747.401 68.0344 747.401 68.0344 745.778 67.2656 744.198 65.899 743.258 64.575 742.276 62.8667 742.02 61.2865 742.532 59.9625 740.055 57.101 738.774 54.3677 739.457 51.6344 740.098 49.7125 742.532 49.6271 745.351 47.8333 745.009 45.9115 745.693 44.7156 747.188 43.5625 748.682 43.3063 750.732 44.075 752.441 44.8438 754.192 46.5094 755.345 48.4313 755.473L68.9313 755.516C71.1521 755.473 72.9458 753.594 72.8604 751.33 72.8177 749.109 70.9385 747.358 68.675 747.401Z" fill="#FFFFFF"/><path d="M60.0479 738.774C60.8167 739.244 61.5427 739.884 62.0979 740.61 64.3187 740.354 66.4969 741.166 67.9917 742.831 70.4688 742.062 72.2625 739.884 72.476 737.279 72.6896 734.674 71.3229 732.197 69.0167 731.001 66.7104 729.805 63.8917 730.147 61.9271 731.855 59.9625 733.564 59.2365 736.297 60.0479 738.774L60.0479 738.774Z" fill="#FFFFFF"/></g></svg>