<svg width="55" height="56" xmlns="http://www.w3.org/2000/svg" xmlns:xlink="http://www.w3.org/1999/xlink" xml:space="preserve" overflow="hidden"><g transform="translate(-20 -228)"><path d="M16.1259 27.4851C16.1278 27.0485 16.1548 26.6124 16.2067 26.1789L9.37234 26.1789 9.37234 28.757 16.2015 28.757C16.1526 28.3347 16.1273 27.9102 16.1259 27.4851Z" fill="#FFFFFF" transform="matrix(1 0 0 1.01818 20 228)"/><path d="M20.4354 18.5929 15.5896 13.75 13.7666 15.5724 18.6101 20.4159C19.1481 19.7416 19.7604 19.13 20.4354 18.5929Z" fill="#FFFFFF" transform="matrix(1 0 0 1.01818 20 228)"/><path d="M27.4874 16.1236C27.9182 16.1254 28.3486 16.1516 28.7765 16.2021L28.7765 9.35344 26.1983 9.35344 26.1983 16.2021C26.6262 16.1516 27.0566 16.1254 27.4874 16.1236Z" fill="#FFFFFF" transform="matrix(1 0 0 1.01818 20 228)"/><path d="M36.3642 20.4136 41.2076 15.5702 39.3846 13.75 34.5389 18.5952C35.2139 19.1305 35.8262 19.7406 36.3642 20.4136Z" fill="#FFFFFF" transform="matrix(1 0 0 1.01818 20 228)"/><path d="M18.5957 34.5371 13.7666 39.3651 15.5896 41.1881 20.4159 36.3624C19.7424 35.8245 19.1318 35.2121 18.5957 34.5371Z" fill="#FFFFFF" transform="matrix(1 0 0 1.01818 20 228)"/><path d="M27.4874 38.8466C27.0566 38.8448 26.6262 38.8187 26.1983 38.7681L26.1983 45.5824 28.7765 45.5824 28.7765 38.7681C28.3486 38.8186 27.9182 38.8448 27.4874 38.8466Z" fill="#FFFFFF" transform="matrix(1 0 0 1.01818 20 228)"/><path d="M38.7676 26.1789C38.8743 27.0348 38.876 27.9006 38.7727 28.757L45.6042 28.757 45.6042 26.1789Z" fill="#FFFFFF" transform="matrix(1 0 0 1.01818 20 228)"/><path d="M34.5583 36.3624 39.3846 41.1881 41.2076 39.3651 36.3802 34.5371C35.8436 35.2122 35.2324 35.8245 34.5583 36.3624Z" fill="#FFFFFF" transform="matrix(1 0 0 1.01818 20 228)"/><path d="M36.5572 27.4851C36.5572 32.4946 32.4963 36.5555 27.4868 36.5555 22.4774 36.5555 18.4164 32.4946 18.4164 27.4851 18.4164 22.4756 22.4774 18.4147 27.4868 18.4147 27.487 18.4147 27.4872 18.4147 27.4874 18.4147 32.4965 18.4147 36.5572 22.4754 36.5572 27.4845 36.5572 27.4847 36.5572 27.4849 36.5572 27.4851Z" fill="#FFFFFF" transform="matrix(1 0 0 1.01818 20 228)"/></g></svg>