<svg width="66" height="95" xmlns="http://www.w3.org/2000/svg" xmlns:xlink="http://www.w3.org/1999/xlink" xml:space="preserve" overflow="hidden"><defs><clipPath id="clip0"><rect x="1269" y="183" width="66" height="95"/></clipPath></defs><g clip-path="url(#clip0)" transform="translate(-1269 -183)"><path d="M1301.62 201.092C1292.97 201.092 1285.96 208.073 1285.96 216.685 1285.96 225.296 1292.97 232.277 1301.62 232.277 1310.26 232.277 1317.27 225.296 1317.27 216.685 1317.27 208.073 1310.26 201.092 1301.62 201.092ZM1302 183C1310.45 183 1318.89 186.208 1325.33 192.626L1325.33 192.626C1338.22 205.461 1338.22 226.27 1325.33 239.104 1314.94 249.46 1307.16 262.425 1302 278 1296.84 262.425 1289.06 249.46 1278.67 239.104 1265.78 226.269 1265.78 205.46 1278.67 192.626 1285.11 186.208 1293.55 183 1302 183Z" fill="#7F7F7F" fill-rule="evenodd"/></g></svg>