<svg width="98" height="142" xmlns="http://www.w3.org/2000/svg" xmlns:xlink="http://www.w3.org/1999/xlink" xml:space="preserve" overflow="hidden"><defs><clipPath id="clip0"><rect x="122" y="772" width="98" height="142"/></clipPath></defs><g clip-path="url(#clip0)" transform="translate(-122 -772)"><path d="M170.431 799.043C157.591 799.043 147.183 809.478 147.183 822.35 147.183 835.222 157.591 845.657 170.431 845.657 183.27 845.657 193.679 835.222 193.679 822.35 193.679 809.478 183.27 799.043 170.431 799.043ZM171 772C183.54 772 196.08 776.796 205.648 786.388L205.648 786.388C224.784 805.573 224.784 836.677 205.648 855.861 190.208 871.34 178.659 890.72 171 914 163.342 890.72 151.792 871.34 136.352 855.861 117.216 836.676 117.216 805.573 136.352 786.388 145.92 776.796 158.46 772 171 772Z" fill="#7F7F7F" fill-rule="evenodd" fill-opacity="0.501961"/></g></svg>