<svg width="98" height="142" xmlns="http://www.w3.org/2000/svg" xmlns:xlink="http://www.w3.org/1999/xlink" xml:space="preserve" overflow="hidden"><defs><clipPath id="clip0"><rect x="123" y="539" width="98" height="142"/></clipPath></defs><g clip-path="url(#clip0)" transform="translate(-123 -539)"><path d="M171.431 566.043C158.591 566.043 148.183 576.477 148.183 589.35 148.183 602.222 158.591 612.657 171.431 612.657 184.27 612.657 194.679 602.222 194.679 589.35 194.679 576.477 184.27 566.043 171.431 566.043ZM172 539C184.54 539 197.08 543.796 206.648 553.388L206.648 553.388C225.784 572.573 225.784 603.677 206.648 622.861 191.208 638.34 179.659 657.72 172 681 164.342 657.72 152.792 638.34 137.352 622.861 118.216 603.676 118.216 572.573 137.352 553.388 146.92 543.796 159.46 539 172 539Z" fill="#275317" fill-rule="evenodd"/></g></svg>