<svg width="146" height="146" xmlns="http://www.w3.org/2000/svg" xmlns:xlink="http://www.w3.org/1999/xlink" xml:space="preserve" overflow="hidden"><defs><clipPath id="clip0"><rect x="-576" y="640" width="146" height="146"/></clipPath></defs><g clip-path="url(#clip0)" transform="translate(576 -640)"><path d="M-503.075 671.042C-516.046 671.042-526.56 681.477-526.56 694.349-526.56 707.222-516.046 717.657-503.075 717.657-490.105 717.657-479.59 707.222-479.59 694.349-479.59 681.477-490.105 671.042-503.075 671.042ZM-502.5 644C-489.832 644-477.164 648.796-467.498 658.388L-467.498 658.388C-448.167 677.573-448.167 708.677-467.498 727.861-483.096 743.34-494.763 762.72-502.5 786-510.237 762.72-521.904 743.34-537.502 727.861-556.833 708.676-556.833 677.573-537.502 658.388-527.836 648.796-515.168 644-502.5 644Z" fill="#FFFFFF" fill-rule="evenodd"/></g></svg>