<svg width="99" height="100" xmlns="http://www.w3.org/2000/svg" xmlns:xlink="http://www.w3.org/1999/xlink" xml:space="preserve" overflow="hidden"><defs><clipPath id="clip0"><path d="M64.4384 694.295 15.2784 645.135 64.4384 595.975 113.598 645.135Z" fill-rule="evenodd" clip-rule="evenodd"/></clipPath><clipPath id="clip1"><path d="M64.4384 694.295 15.2784 645.135 64.4384 595.975 113.598 645.135Z" fill-rule="evenodd" clip-rule="evenodd"/></clipPath><clipPath id="clip2"><path d="M64.4384 694.295 15.2784 645.135 64.4384 595.975 113.598 645.135Z" fill-rule="evenodd" clip-rule="evenodd"/></clipPath></defs><g transform="translate(-15 -595)"><g clip-path="url(#clip0)"><g clip-path="url(#clip1)"><g clip-path="url(#clip2)"><path d="M28.951 655.633 99.9258 655.633 99.9258 634.638 29.0535 634.638 28.951 655.633ZM44.1599 638.99 52.1484 638.99 52.1484 645.34 55.0161 645.34 55.0161 638.99 63.0046 638.99 63.0046 645.34 65.8723 645.34 65.8723 638.99 73.8608 638.99 73.8608 645.34 76.7284 645.34 76.7284 638.99 84.7169 638.99 84.7169 645.34 87.5846 645.34 87.5846 638.99 95.4707 638.99 95.4707 651.28 33.3038 651.28 33.3038 638.99 41.1898 638.99 41.1898 645.34 44.1599 645.34 44.1599 638.99Z" fill="#7F7F7F"/></g></g></g></g></svg>