<svg width="34" height="34" xmlns="http://www.w3.org/2000/svg" xmlns:xlink="http://www.w3.org/1999/xlink" xml:space="preserve" overflow="hidden"><g transform="translate(-362 -49)"><path d="M378.995 52.5417C371.566 52.5417 365.544 58.5638 365.544 65.9926 365.544 73.4213 371.566 79.4435 378.995 79.4435 386.424 79.4435 392.446 73.4213 392.446 65.9926 392.446 65.9921 392.446 65.9916 392.446 65.9911 392.448 58.5658 386.431 52.5442 379.006 52.5417 379.002 52.5417 378.999 52.5417 378.995 52.5417ZM385.589 67.19 380.192 67.19 380.192 72.5854 377.798 72.5854 377.798 67.1886 372.401 67.1886 372.401 64.7937 377.798 64.7937 377.798 59.3969 380.192 59.3969 380.192 64.7937 385.589 64.7937Z" fill="#7F7F7F"/></g></svg>