<svg width="47" height="47" xmlns="http://www.w3.org/2000/svg" xmlns:xlink="http://www.w3.org/1999/xlink" xml:space="preserve" overflow="hidden"><g transform="translate(-274 -711)"><path d="M305.333 725.688C305.333 730.014 301.826 733.521 297.5 733.521 293.174 733.521 289.667 730.014 289.667 725.688 289.667 721.361 293.174 717.854 297.5 717.854 301.826 717.854 305.333 721.361 305.333 725.688Z" fill="#7F7F7F"/><path d="M313.167 751.146 313.167 743.312C313.167 742.138 312.579 740.963 311.6 740.179 309.446 738.417 306.704 737.242 303.962 736.458 302.004 735.871 299.85 735.479 297.5 735.479 295.346 735.479 293.192 735.871 291.038 736.458 288.296 737.242 285.554 738.612 283.4 740.179 282.421 740.963 281.833 742.138 281.833 743.312L281.833 751.146 313.167 751.146Z" fill="#7F7F7F"/></g></svg>