<svg width="39" height="39" xmlns="http://www.w3.org/2000/svg" xmlns:xlink="http://www.w3.org/1999/xlink" xml:space="preserve" overflow="hidden"><g transform="translate(-188 -720)"><path d="M225.05 732.066 219.119 726.256C218.956 726.094 218.753 725.972 218.55 725.891L213.025 723.819C212.741 723.697 212.375 723.778 212.172 724.022 210.994 725.241 209.328 726.013 207.5 726.013 205.672 726.013 204.006 725.241 202.828 724.022 202.625 723.778 202.259 723.737 201.975 723.819L196.45 725.891C196.247 725.972 196.044 726.094 195.881 726.256L189.95 732.066C189.625 732.431 189.666 733 190.031 733.284L195.475 737.388C195.8 737.631 196.247 737.631 196.531 737.347L198.562 735.438 198.562 755.222 216.438 755.222 216.438 735.478 218.469 737.388C218.753 737.672 219.241 737.672 219.525 737.428L224.969 733.284C225.334 733 225.375 732.431 225.05 732.066Z" fill="#FFFFFF"/></g></svg>