<svg width="38" height="39" xmlns="http://www.w3.org/2000/svg" xmlns:xlink="http://www.w3.org/1999/xlink" xml:space="preserve" overflow="hidden"><g transform="translate(-189 -690)"><path d="M36.1 11.7563 30.3208 6.09583C30.1625 5.9375 29.9646 5.81875 29.7667 5.73958L24.3833 3.72083C24.1063 3.60208 23.75 3.68125 23.5521 3.91875 22.4042 5.10625 20.7812 5.85833 19 5.85833 17.2188 5.85833 15.5958 5.10625 14.4479 3.91875 14.25 3.68125 13.8938 3.64167 13.6167 3.72083L8.23333 5.73958C8.03542 5.81875 7.8375 5.9375 7.67917 6.09583L1.9 11.7563C1.58333 12.1125 1.62292 12.6667 1.97917 12.9438L7.28333 16.9417C7.6 17.1792 8.03542 17.1792 8.3125 16.9021L10.2917 15.0417 10.2917 34.3187 27.7083 34.3187 27.7083 15.0813 29.6875 16.9417C29.9646 17.2188 30.4396 17.2188 30.7167 16.9813L36.0208 12.9438C36.3771 12.6667 36.4167 12.1125 36.1 11.7563Z" fill="#7F7F7F" transform="matrix(1 0 0 1.02632 189 690)"/></g></svg>